<svg width="1600" height="1200" xmlns="http://www.w3.org/2000/svg">
 <g>
  <title>Layer 1</title>
  <g id="svg_2">
   <path id="voxel" d="m371.85675,250.700211l2.300018,507.300034c0,6.5 3.600006,12.5 9.399994,15.599976l405.200012,212.100037c2.599976,1.400024 5.5,2.099976 8.400024,2.099976c0,0 0,0 0,0c1.199951,1.400024 2.599976,2.700012 4.199951,3.700012c2.800049,1.700012 6,2.499939 9.100037,2.499939c2.899963,0 5.799988,-0.699951 8.399963,-2.099915l399.999939,-217c5.699951,-3.100037 9.300049,-9.100037 9.300049,-15.600037l0,-527.800003c0,-0.100006 -0.100098,-0.300018 -0.100098,-0.5c0,-0.100006 0,-0.300018 0,-0.399994c0,-0.5 -0.199951,-1 -0.299927,-1.5c-0.200073,-1 -0.299927,-1.900024 -0.599976,-2.900024c-0.199951,-0.599991 -0.5,-1.199997 -0.800049,-1.899994c-0.399902,-0.800003 -0.699951,-1.699997 -1.199951,-2.400009c-0.400024,-0.599991 -0.800049,-1.099991 -1.300049,-1.699997c-0.599976,-0.699997 -1.099976,-1.300003 -1.800049,-1.899994c-0.5,-0.5 -1.099854,-0.900009 -1.699951,-1.300003c-0.399902,-0.300003 -0.699951,-0.600006 -1.099976,-0.899994c-0.400024,-0.200012 -0.799927,-0.300003 -1.200073,-0.5c-0.299927,-0.200012 -0.599854,-0.400009 -1,-0.600006l-411.899841,-199.599995c-4.800049,-2 -10.300049,-1.799995 -14.900024,0.5l-407.5,212.399998c-6,3 -9.700012,9.100006 -9.800018,15.800018c0,0.099976 0,0.199982 0,0.299988c-0.600006,2 -1.199982,4.100006 -1.100006,6.299988zm797.600037,-17.299988l-359.200012,200.800034l-380.300018,-189.800034l368.899994,-193.000011l370.600037,182.000011zm-341.200012,712.900009l0,-481.399994l364.499939,-203.699982l0,487.299988l-364.499939,197.799988z"/>
  </g>
  <text transform="matrix(1, 0, 0, 1, 0, 0)" xml:space="preserve" text-anchor="start" font-family="'Trebuchet MS', Gadget, sans-serif" font-size="122" id="header" y="1108.328125" x="389.760647" stroke-width="0" stroke="#000" fill="#000000">VoxelGamesLib</text>
 </g>
</svg>